<?xml version="1.0" standalone="no"?>
<!DOCTYPE svg PUBLIC "-//W3C//DTD SVG 20010904//EN"
 "http://www.w3.org/TR/2001/REC-SVG-20010904/DTD/svg10.dtd">
<svg version="1.0" xmlns="http://www.w3.org/2000/svg"
 width="512.000000pt" height="512.000000pt" viewBox="0 0 512.000000 512.000000"
 preserveAspectRatio="xMidYMid meet">
<metadata>
Created by potrace 1.11, written by Peter Selinger 2001-2013
</metadata>
<g transform="translate(0.000000,512.000000) scale(0.100000,-0.100000)"
fill="#000000" stroke="none">
<path d="M955 5096 c-205 -43 -317 -87 -460 -180 -152 -99 -279 -243 -364
-413 -40 -79 -96 -234 -107 -297 -3 -17 -9 -49 -14 -71 -6 -23 -10 -683 -10
-1593 0 -1530 0 -1554 21 -1645 104 -469 443 -776 969 -876 89 -17 183 -18
1580 -16 1082 2 1503 6 1550 15 548 98 878 437 980 1005 18 101 19 141 14 485
-3 206 -4 755 -3 1220 5 1413 7 1320 -19 1443 -82 394 -264 652 -570 811 -77
39 -213 91 -265 102 -10 2 -26 5 -35 8 -9 3 -30 9 -47 13 -16 4 -723 9 -1570
10 l-1540 2 -110 -23z"/>
<path d="M0 10 c0 -5 9 -10 20 -10 11 0 20 5 20 10 0 6 -9 10 -20 10 -11 0
-20 -4 -20 -10z"/>
<path d="M5010 10 c0 -5 25 -10 55 -10 30 0 55 5 55 10 0 6 -25 10 -55 10 -30
0 -55 -4 -55 -10z"/>
</g>
</svg>
