<?xml version="1.0" standalone="no"?>
<!DOCTYPE svg PUBLIC "-//W3C//DTD SVG 20010904//EN"
 "http://www.w3.org/TR/2001/REC-SVG-20010904/DTD/svg10.dtd">
<svg version="1.0" xmlns="http://www.w3.org/2000/svg"
 width="256.000000pt" height="256.000000pt" viewBox="0 0 256.000000 256.000000"
 preserveAspectRatio="xMidYMid meet">
<metadata>
Created by potrace 1.11, written by Peter Selinger 2001-2013
</metadata>
<g transform="translate(0.000000,256.000000) scale(0.100000,-0.100000)"
fill="#000000" stroke="none">
<path d="M1168 2505 c-2 -2 -26 -6 -53 -9 -28 -3 -59 -7 -70 -10 -116 -26
-157 -38 -233 -71 -103 -45 -213 -109 -283 -165 -120 -96 -240 -231 -295 -330
-10 -19 -21 -37 -24 -40 -23 -23 -100 -215 -124 -312 -27 -108 -30 -135 -30
-283 -1 -143 6 -223 24 -269 5 -14 8 -26 5 -26 -8 0 63 -195 95 -259 63 -126
152 -247 259 -350 57 -55 154 -131 167 -131 4 0 15 -6 23 -14 19 -17 158 -90
193 -101 12 -4 25 -8 28 -10 42 -18 109 -37 180 -51 14 -2 30 -6 37 -9 17 -6
150 -18 198 -18 58 0 227 13 235 18 4 3 25 7 46 11 87 13 364 124 364 145 0 5
5 9 11 9 21 0 131 83 212 159 94 90 175 198 240 321 43 82 93 211 103 268 3
15 9 43 14 62 12 45 24 171 23 238 -1 65 -12 203 -17 211 -2 3 -7 22 -10 42
-6 38 -54 197 -64 214 -4 6 -7 12 -7 15 -3 19 -73 145 -119 213 -57 86 -163
201 -231 252 -22 17 -48 37 -57 45 -36 32 -183 113 -266 147 -86 35 -185 63
-272 78 -46 8 -296 16 -302 10z"/>
</g>
</svg>
