<?xml version="1.0" standalone="no"?>
<!DOCTYPE svg PUBLIC "-//W3C//DTD SVG 20010904//EN"
 "http://www.w3.org/TR/2001/REC-SVG-20010904/DTD/svg10.dtd">
<svg version="1.0" xmlns="http://www.w3.org/2000/svg"
 width="512.000000pt" height="512.000000pt" viewBox="0 0 512.000000 512.000000"
 preserveAspectRatio="xMidYMid meet">
<metadata>
Created by potrace 1.11, written by Peter Selinger 2001-2013
</metadata>
<g transform="translate(0.000000,512.000000) scale(0.100000,-0.100000)"
fill="#000000" stroke="none">
<path d="M2330 4501 c0 -5 -30 -9 -67 -10 -150 -4 -183 -15 -209 -70 -10 -20
-17 -54 -17 -76 1 -22 -3 -45 -8 -52 -7 -7 -6 -14 1 -18 8 -5 5 -12 -7 -22
-10 -8 -12 -12 -5 -8 15 8 16 -7 0 -23 -7 -7 -8 -12 -2 -12 6 0 11 -7 11 -15
0 -8 -3 -15 -6 -15 -3 0 -6 -112 -6 -250 -1 -160 -5 -254 -11 -260 -6 -6 -22
-13 -35 -15 -62 -12 -76 -15 -99 -25 -50 -22 -79 -98 -60 -160 8 -26 71 -69
109 -75 80 -13 91 -17 91 -30 0 -18 -20 -30 -55 -33 -93 -9 -149 -52 -153
-119 -6 -75 41 -131 116 -140 47 -6 75 -10 83 -12 7 -1 7 -4 13 -116 6 -115 6
-116 40 -157 25 -32 32 -35 87 -37 53 -1 63 2 90 27 36 33 48 79 47 177 0 76
3 97 15 106 4 3 83 6 175 8 188 2 238 5 267 17 24 9 64 50 66 67 9 83 -3 123
-48 153 -31 20 -37 21 -270 24 -177 2 -203 5 -203 26 0 26 37 31 245 33 221 2
304 5 345 15 14 3 40 9 57 12 18 3 30 10 27 15 -3 5 2 6 10 3 9 -3 16 -1 16 5
0 6 7 11 15 11 8 0 15 5 15 11 0 6 7 9 15 6 8 -4 17 -1 21 5 5 7 2 9 -7 4 -8
-4 -5 -1 5 6 34 23 171 162 174 178 2 8 7 17 10 20 15 11 59 110 50 110 -7 0
-6 5 1 13 6 8 8 17 4 20 -3 4 -1 7 5 7 8 0 11 38 10 129 -1 72 -5 128 -9 125
-10 -6 -30 66 -22 79 3 6 1 7 -4 4 -13 -8 -26 20 -16 35 3 6 1 8 -4 5 -6 -4
-14 1 -18 11 -3 9 -5 17 -4 17 2 0 -9 13 -24 29 -15 16 -24 33 -20 39 3 5 1 7
-4 4 -6 -4 -24 9 -40 28 -17 19 -35 35 -41 35 -6 0 -19 10 -29 23 -10 13 -23
22 -30 20 -6 -2 -15 1 -19 8 -5 8 -3 9 6 4 8 -5 11 -4 6 3 -4 6 -14 8 -23 5
-12 -5 -14 -3 -8 8 4 8 5 11 0 7 -4 -4 -15 -2 -23 5 -13 10 -14 9 -8 -1 7 -11
4 -12 -13 -3 -11 7 -21 14 -21 17 0 3 5 2 12 -2 6 -4 8 -3 5 3 -4 6 -19 8 -33
5 -21 -4 -25 -2 -19 9 7 11 5 11 -10 -1 -11 -9 -16 -10 -11 -2 4 6 4 12 -1 13
-38 5 -69 3 -75 -6 -5 -6 -8 -4 -8 5 0 9 -9 16 -20 16 -11 0 -20 -4 -20 -9 0
-5 -5 -5 -12 0 -15 11 -87 12 -105 0 -6 -4 -14 -3 -17 1 -6 10 -178 8 -195 -2
-6 -4 -11 -2 -11 5 0 8 -4 9 -13 0 -10 -8 -17 -7 -27 2 -10 9 -11 9 -6 0 5 -8
1 -13 -9 -13 -9 0 -13 5 -10 10 3 6 1 10 -4 10 -6 0 -11 -4 -11 -9z m425 -260
c0 -1 19 -4 42 -6 211 -18 329 -279 207 -457 -21 -30 -134 -118 -134 -104 0 2
-19 -2 -43 -9 -58 -17 -520 -16 -538 2 -8 8 -11 86 -11 270 0 142 1 265 3 273
9 34 30 37 253 35 122 -1 221 -3 221 -4z"/>
<path d="M4126 3763 c-1 -2 -52 -5 -112 -8 -267 -12 -339 -17 -357 -26 -10 -6
-25 -25 -32 -42 -16 -39 -10 -50 109 -169 52 -51 86 -94 86 -106 0 -12 -35
-55 -89 -109 -228 -227 -412 -403 -422 -403 -5 0 -8 -4 -5 -8 3 -5 -6 -15 -19
-22 -14 -7 -25 -16 -25 -20 0 -4 -41 -47 -91 -96 -50 -49 -192 -189 -317 -312
-124 -122 -227 -222 -228 -222 -2 0 -27 -25 -56 -56 -85 -89 -122 -100 -174
-50 -12 11 -147 143 -300 293 -426 415 -442 431 -479 458 -43 33 -107 40 -153
16 -39 -20 -876 -831 -857 -831 4 0 2 -7 -5 -15 -17 -20 -15 -92 4 -120 62
-94 146 -130 223 -95 21 9 99 76 173 148 74 73 135 132 135 132 1 0 80 78 177
174 97 96 179 172 182 168 3 -3 6 0 6 6 0 7 11 12 24 12 25 0 74 -35 113 -81
13 -15 55 -57 94 -95 40 -38 127 -123 194 -189 317 -311 412 -402 443 -423 36
-26 115 -36 146 -18 43 24 207 181 661 631 133 132 291 286 351 342 60 56 193
185 296 286 218 215 243 237 269 237 11 0 55 -34 99 -76 94 -91 138 -124 162
-124 10 0 31 12 48 28 34 31 37 47 45 236 3 66 8 168 11 226 3 58 6 145 6 193
0 84 -1 89 -28 112 -27 24 -33 24 -167 22 -76 -1 -140 -3 -141 -4z"/>
<path d="M3877 2717 c-80 -78 -203 -198 -275 -267 -73 -68 -137 -136 -145
-152 -10 -21 -13 -145 -12 -615 1 -615 0 -609 44 -651 42 -42 65 -46 267 -45
165 0 199 3 227 18 36 19 66 54 74 88 6 24 10 1672 5 1724 -8 64 -32 50 -185
-100z"/>
<path d="M1410 2125 c-40 -39 -110 -106 -155 -150 -176 -170 -292 -281 -325
-309 l-34 -28 -1 -264 c-1 -298 3 -317 72 -364 36 -25 40 -25 232 -25 223 0
252 7 293 74 l23 36 0 529 c1 639 7 609 -105 501z"/>
<path d="M3150 2002 c-14 -5 -62 -50 -325 -309 -74 -72 -150 -144 -170 -159
-60 -46 -63 -58 -59 -259 2 -99 4 -186 5 -194 4 -24 67 -80 102 -89 44 -12
360 -12 404 0 37 10 61 30 90 74 17 26 18 60 19 444 0 228 -3 429 -7 445 -9
33 -36 55 -59 47z"/>
<path d="M1751 1948 c-5 -13 -8 -210 -7 -438 1 -408 1 -416 23 -450 43 -70 63
-75 288 -75 190 0 202 1 236 23 65 40 76 79 75 272 -2 188 0 183 -81 234 -28
18 -105 86 -173 152 -67 65 -164 161 -217 212 -98 96 -129 110 -144 70z"/>
<path d="M0 10 c0 -5 9 -10 20 -10 11 0 20 5 20 10 0 6 -9 10 -20 10 -11 0
-20 -4 -20 -10z"/>
<path d="M5010 10 c0 -5 25 -10 55 -10 30 0 55 5 55 10 0 6 -25 10 -55 10 -30
0 -55 -4 -55 -10z"/>
</g>
</svg>
